<svg width="440" height="428" viewBox="0 0 440 428" version="1.1" xmlns="http://www.w3.org/2000/svg" xmlns:xlink="http://www.w3.org/1999/xlink">
<title>Frame</title>
<desc>Created using Figma</desc>
<g id="Canvas" transform="translate(245 215)">
<clipPath id="clip-0" clip-rule="evenodd">
<path d="M -245 -215L 195 -215L 195 213L -245 213L -245 -215Z" fill="#FFFFFF"/>
</clipPath>
<g id="Frame" clip-path="url(#clip-0)">
<g id="lookhop">
<use xlink:href="#path0_fill" transform="translate(-192 -48)" fill="#F3F3F3"/>
</g>
<g id="Ellipse">
<mask id="mask0_outline_ins">
<use xlink:href="#path1_fill" fill="white" transform="translate(-225 -190)"/>
</mask>
<g mask="url(#mask0_outline_ins)">
<use xlink:href="#path2_stroke_2x" transform="translate(-225 -190)" fill="#F3F3F3"/>
</g>
</g>
<g id="Ellipse">
<mask id="mask1_outline_ins">
<use xlink:href="#path1_fill" fill="white" transform="translate(-217 -192)"/>
</mask>
<g mask="url(#mask1_outline_ins)">
<use xlink:href="#path3_stroke_2x" transform="translate(-217 -192)" fill="#F3F3F3"/>
</g>
</g>
<g id="Ellipse">
<mask id="mask2_outline_ins">
<use xlink:href="#path1_fill" fill="white" transform="translate(-209 -195)"/>
</mask>
<g mask="url(#mask2_outline_ins)">
<use xlink:href="#path2_stroke_2x" transform="translate(-209 -195)" fill="#F3F3F3"/>
</g>
</g>
</g>
</g>
<defs>
<path id="path0_fill" d="M 45.4399 78.29C 54.5699 78.29 64.1399 65.31 68.4299 58.16L 68.5399 58.05C 69.3099 56.84 70.0799 55.52 70.0799 54.2C 70.0799 53.21 69.7499 52.22 68.5399 52.22C 67.4399 52.22 66.7799 52.88 66.2299 53.76L 63.3699 58.27C 60.6199 62.56 53.1399 71.69 47.7499 71.69C 41.6999 71.69 40.8199 58.6 40.8199 54.31C 40.8199 52.99 40.8199 50.68 41.2599 49.47C 41.5899 48.48 42.5799 47.16 43.1299 46.28C 44.8899 43.42 46.8699 40.78 48.4099 37.81C 55.0099 25.82 62.1599 6.24 62.1599 -7.51C 62.1599 -11.69 60.7299 -17.41 55.5599 -17.41C 48.9599 -17.41 42.6899 -6.52 40.3799 -1.24C 34.3299 12.84 32.0199 28.24 32.0199 43.53C 32.0199 52.11 33.2299 78.29 45.4399 78.29ZM 55.8899 -12.13C 57.5399 -12.13 57.5399 -9.05 57.5399 -8.06C 57.5399 5.91 47.7499 27.36 40.5999 39.35C 40.4899 38.25 40.4899 37.26 40.4899 36.16C 40.4899 25.6 43.5699 13.5 46.7599 2.94C 47.9699 -1.13 51.2699 -12.13 55.8899 -12.13ZM 62.691 61.46C 62.691 68.06 65.331 76.09 73.251 76.09C 76.331 76.09 79.301 74.88 81.831 73.23C 90.191 67.62 93.601 57.06 93.601 47.38C 93.601 40.78 91.401 32.31 83.261 32.31C 70.171 32.31 62.691 50.46 62.691 61.46ZM 83.261 39.57C 87.991 39.57 88.981 45.84 88.981 49.47C 88.981 56.18 86.671 64.32 81.171 68.61C 79.741 69.71 77.981 70.7 76.111 70.7C 71.601 70.7 70.611 65.2 70.611 61.68C 70.611 55.08 75.011 39.57 83.261 39.57ZM 96.5891 61.46C 96.5891 68.06 99.2291 76.09 107.149 76.09C 110.229 76.09 113.199 74.88 115.729 73.23C 124.089 67.62 127.499 57.06 127.499 47.38C 127.499 40.78 125.299 32.31 117.159 32.31C 104.069 32.31 96.5891 50.46 96.5891 61.46ZM 117.159 39.57C 121.889 39.57 122.879 45.84 122.879 49.47C 122.879 56.18 120.569 64.32 115.069 68.61C 113.639 69.71 111.879 70.7 110.009 70.7C 105.499 70.7 104.509 65.2 104.509 61.68C 104.509 55.08 108.909 39.57 117.159 39.57ZM 139.507 58.27C 141.707 59.04 143.687 60.14 145.777 61.24L 160.627 69.05C 161.727 69.6 162.827 70.15 164.037 70.15C 165.027 70.15 166.347 69.93 166.347 68.61C 166.347 66.52 164.477 64.76 162.937 63.66C 158.757 60.69 154.137 58.27 149.627 55.74C 146.877 54.2 144.237 52.55 141.267 51.45C 148.307 44.74 155.347 38.03 162.937 31.87C 164.147 30.88 165.907 29.45 165.907 27.8C 165.907 26.59 164.807 25.27 163.597 25.27C 162.167 25.27 160.627 27.03 159.637 27.91C 152.927 34.29 145.997 40.34 139.617 47.05C 141.047 34.29 143.357 21.64 146.327 9.1C 148.307 1.07 149.407 -3.44 150.947 -7.73C 151.497 -9.27 152.047 -10.92 152.047 -12.57C 152.047 -14.44 151.167 -15.54 149.297 -15.54C 144.237 -15.54 141.597 -11.58 140.277 -7.18C 137.307 2.5 135.657 12.62 134.117 22.52C 132.027 35.83 130.817 49.25 130.817 62.67C 130.817 70.04 130.817 77.41 131.807 82.69C 132.137 84.34 132.797 85.77 134.667 85.77C 137.417 85.77 137.527 82.58 137.527 80.6C 137.527 73.23 138.737 62.78 139.507 58.27ZM 203.146 35.39C 204.246 35.39 204.246 37.37 204.246 38.03C 203.476 46.83 202.486 54.75 202.486 62.67C 202.486 67.51 202.486 77.74 208.316 77.74C 218.656 77.74 229.656 64.76 233.946 56.29C 234.166 55.74 234.606 55.19 234.606 54.53C 234.606 53.43 234.276 52.33 232.956 52.33C 231.746 52.33 230.976 53.76 230.316 54.75C 226.466 60.47 219.316 71.14 212.496 71.14C 209.636 71.14 209.526 68.28 209.526 66.19L 211.616 38.58C 211.616 34.62 210.296 28.68 205.346 28.68C 195.006 28.68 181.806 52.88 177.736 61.57C 178.176 58.6 180.156 45.29 181.036 43.53C 182.796 40.12 184.776 36.82 186.536 33.3C 193.796 18.89 199.406 3.16 199.406 -13.23C 199.406 -16.86 198.306 -23.57 193.466 -23.57C 177.186 -23.57 171.796 48.37 170.256 60.58C 169.816 64.32 169.046 68.17 169.046 71.91C 169.046 74.33 169.596 78.51 172.786 78.51C 175.976 78.51 177.736 74.88 178.946 72.35L 179.056 72.02C 181.696 66.41 198.306 35.39 203.146 35.39ZM 194.016 -17.96C 195.336 -17.96 195.336 -13.78 195.336 -12.79C 195.336 0.85 186.976 21.97 180.376 33.96C 180.816 26.48 187.196 -17.96 194.016 -17.96ZM 226.02 61.46C 226.02 68.06 228.66 76.09 236.58 76.09C 239.66 76.09 242.63 74.88 245.16 73.23C 253.52 67.62 256.93 57.06 256.93 47.38C 256.93 40.78 254.73 32.31 246.59 32.31C 233.5 32.31 226.02 50.46 226.02 61.46ZM 246.59 39.57C 251.32 39.57 252.31 45.84 252.31 49.47C 252.31 56.18 250 64.32 244.5 68.61C 243.07 69.71 241.31 70.7 239.44 70.7C 234.93 70.7 233.94 65.2 233.94 61.68C 233.94 55.08 238.34 39.57 246.59 39.57ZM 271.138 66.3C 271.468 63.22 272.238 53.98 273.118 52.55C 275.538 48.15 285.108 35.72 290.168 35.72C 292.918 35.72 293.468 38.91 293.468 41.11C 293.468 48.48 286.208 68.06 277.298 68.06C 274.218 68.06 273.228 66.52 271.908 66.52C 271.578 66.52 271.358 66.63 271.138 66.85L 271.138 66.3ZM 288.078 75.87C 300.948 75.87 309.968 68.06 316.458 57.39C 317.118 56.4 317.448 55.63 317.448 54.31C 317.448 53.1 316.788 52.33 315.578 52.33C 314.258 52.33 313.598 54.2 313.048 55.08C 308.318 63.55 299.188 71.8 288.958 71.8C 287.858 71.8 286.758 71.69 285.658 71.47C 287.638 71.14 289.398 69.93 290.828 68.5C 296.658 62.89 300.508 51.12 300.508 43.2C 300.508 37.26 298.528 31.1 291.488 31.1C 284.448 31.1 276.088 41.22 272.238 46.39C 272.458 43.86 273.008 41.33 273.008 38.8C 273.008 36.16 270.368 32.09 267.398 32.09C 263.548 32.09 263.878 38.03 263.658 40.67C 262.008 57.5 261.898 60.58 261.458 61.9C 256.178 77.74 249.138 100.18 249.138 116.68C 249.138 120.31 250.128 128.01 255.188 128.01C 258.928 128.01 261.568 123.72 262.778 120.75C 267.288 109.64 269.378 86.76 270.588 72.9L 270.808 70.15C 273.998 74.77 282.908 75.87 288.078 75.87ZM 262.888 72.46C 262.118 85 260.908 97.65 258.928 110.08C 258.708 111.51 257.058 122.18 255.188 122.18C 253.868 122.18 253.868 118.11 253.868 117.23C 253.868 105.79 258.488 83.02 262.888 72.46Z"/>
<path id="path1_fill" d="M 383 191.5C 383 297.263 297.263 383 191.5 383C 85.7375 383 0 297.263 0 191.5C 0 85.7375 85.7375 0 191.5 0C 297.263 0 383 85.7375 383 191.5Z"/>
<path id="path2_stroke_2x" d="M 381 191.5C 381 296.158 296.158 381 191.5 381L 191.5 385C 298.367 385 385 298.367 385 191.5L 381 191.5ZM 191.5 381C 86.842 381 2 296.158 2 191.5L -2 191.5C -2 298.367 84.6329 385 191.5 385L 191.5 381ZM 2 191.5C 2 86.842 86.842 2 191.5 2L 191.5 -2C 84.6329 -2 -2 84.6329 -2 191.5L 2 191.5ZM 191.5 2C 296.158 2 381 86.842 381 191.5L 385 191.5C 385 84.6329 298.367 -2 191.5 -2L 191.5 2Z"/>
<path id="path3_stroke_2x" d="M 379 191.5C 379 295.053 295.053 379 191.5 379L 191.5 387C 299.472 387 387 299.472 387 191.5L 379 191.5ZM 191.5 379C 87.9466 379 4 295.053 4 191.5L -4 191.5C -4 299.472 83.5283 387 191.5 387L 191.5 379ZM 4 191.5C 4 87.9466 87.9466 4 191.5 4L 191.5 -4C 83.5283 -4 -4 83.5283 -4 191.5L 4 191.5ZM 191.5 4C 295.053 4 379 87.9466 379 191.5L 387 191.5C 387 83.5283 299.472 -4 191.5 -4L 191.5 4Z"/>
</defs>
</svg>
